<svg width="28" height="22" viewBox="0 0 28 22" fill="none" xmlns="http://www.w3.org/2000/svg">
<path d="M21.9714 0.945923L14.006 5.63134L6.04054 0.945923L0 11.4781L8.07257 16.2278V21.9459H20.1021V16.1313L28 11.4781L21.9714 0.945923ZM14.006 7.83341L16.1253 11.5263H11.8906L14.006 7.83341ZM8.07257 14.6164L1.88122 10.9718L6.54061 2.85063L13.0653 6.68817L10.2872 11.5102L9.49341 12.9046L9.44975 12.9809L8.40595 14.8013L8.07257 14.6164ZM18.7249 20.5515H9.44975V15.7657L11.0889 12.9126H16.927L18.7249 16.051V20.5515ZM19.6099 14.8093L18.7249 13.2743L18.5185 12.9126L17.7247 11.5183L14.9466 6.69621L21.4673 2.85867L26.1347 10.9718L20.1021 14.52L19.6099 14.8093Z" fill="#303437"/>
</svg>
