<svg width="30" height="30" viewBox="0 0 30 30" fill="none" xmlns="http://www.w3.org/2000/svg">
<path d="M11.5213 8.36392C12.6763 8.36392 13.6085 9.25271 13.6085 10.3537C13.6085 11.4548 12.6763 12.3436 11.5213 12.3436C10.3664 12.3436 9.43414 11.4548 9.43414 10.3537C9.43414 9.25271 10.3664 8.36392 11.5213 8.36392ZM18.4787 17.6498C19.6336 17.6498 20.5659 18.5386 20.5659 19.6396C20.5659 20.7407 19.6336 21.6294 18.4787 21.6294C17.3237 21.6294 16.3915 20.7407 16.3915 19.6396C16.3915 18.5386 17.3237 17.6498 18.4787 17.6498ZM10.0046 21.6294L8.04267 19.759L19.9954 8.36392L21.9573 10.2344L10.0046 21.6294ZM24.2532 2.85872L25.102 7.97922L29.9861 10.3537L27.5232 14.9967L30 19.6396L25.0742 22.0142L24.2254 27.1346L18.8126 26.3255L14.9583 30L11.09 26.2724L5.71892 27.1214L4.85622 21.9611L0 19.5998L2.47681 14.9569L0.0139146 10.3537L4.89796 7.95269L5.74675 2.88525L11.1317 3.72098L15 0L18.8404 3.66792L24.2532 2.85872ZM26.2709 11.5078L22.6531 9.69047L21.9573 5.85673L17.9221 6.41389L15 3.72098L12.0779 6.41389L8.04267 5.85673L7.34694 9.69047L3.72913 11.5078L5.53803 14.9967L3.72913 18.4855L7.34694 20.3029L8.04267 24.1366L12.0779 23.5795L15 26.2724L17.9221 23.5795L21.9573 24.1366L22.6531 20.3029L26.2709 18.4855L24.462 14.9967L26.2709 11.5078Z" fill="#2362CB"/>
</svg>
