<svg width="24" height="24" viewBox="0 0 24 24" fill="none" xmlns="http://www.w3.org/2000/svg">
<path d="M9.49875 7.00007C10.3287 7.00007 10.9987 7.67007 10.9987 8.50007C10.9987 9.33007 10.3287 10.0001 9.49875 10.0001C8.66875 10.0001 7.99875 9.33007 7.99875 8.50007C7.99875 7.67007 8.66875 7.00007 9.49875 7.00007ZM14.4987 14.0001C15.3287 14.0001 15.9987 14.6701 15.9987 15.5001C15.9987 16.3301 15.3287 17.0001 14.4987 17.0001C13.6687 17.0001 12.9987 16.3301 12.9987 15.5001C12.9987 14.6701 13.6687 14.0001 14.4987 14.0001ZM8.40875 17.0001L6.99875 15.5901L15.5887 7.00007L16.9987 8.41007L8.40875 17.0001ZM18.6488 2.85007L19.2588 6.71007L22.7688 8.50007L20.9988 12.0001L22.7788 15.5001L19.2388 17.2901L18.6287 21.1501L14.7387 20.5401L11.9688 23.3101L9.18875 20.5001L5.32875 21.1401L4.70875 17.2501L1.21875 15.4701L2.99875 11.9701L1.22875 8.50007L4.73875 6.69007L5.34875 2.87007L9.21875 3.50007L11.9987 0.695068L14.7587 3.46007L18.6488 2.85007ZM20.0988 9.37007L17.4988 8.00007L16.9987 5.11007L14.0988 5.53007L11.9987 3.50007L9.89875 5.53007L6.99875 5.11007L6.49875 8.00007L3.89875 9.37007L5.19875 12.0001L3.89875 14.6301L6.49875 16.0001L6.99875 18.8901L9.89875 18.4701L11.9987 20.5001L14.0988 18.4701L16.9987 18.8901L17.4988 16.0001L20.0988 14.6301L18.7987 12.0001L20.0988 9.37007Z" fill="#2362CB"/>
</svg>
