<svg width="30" height="30" viewBox="0 0 30 30" fill="none" xmlns="http://www.w3.org/2000/svg">
<path d="M25 19.375C23.5 19.375 21.875 19.125 20.5 18.625C20.375 18.625 20.25 18.625 20.125 18.625C19.75 18.625 19.5 18.75 19.25 19L16.5 21.75C13 19.875 10 17 8.25 13.5L11 10.75C11.375 10.375 11.5 9.875 11.25 9.5C10.875 8.125 10.625 6.5 10.625 5C10.625 4.375 10 3.75 9.375 3.75H5C4.375 3.75 3.75 4.375 3.75 5C3.75 16.75 13.25 26.25 25 26.25C25.625 26.25 26.25 25.625 26.25 25V20.625C26.25 20 25.625 19.375 25 19.375ZM6.25 6.25H8.125C8.25 7.375 8.5 8.5 8.75 9.5L7.25 11C6.75 9.5 6.375 7.875 6.25 6.25ZM23.75 23.75C22.125 23.625 20.5 23.25 19 22.75L20.5 21.25C21.5 21.5 22.625 21.75 23.75 21.75V23.75Z" fill="#2362CB"/>
</svg>
