<svg width="68" height="68" viewBox="0 0 68 68" fill="none" xmlns="http://www.w3.org/2000/svg">
<rect width="68" height="68" rx="2" fill="#F7F7F7"/>
<path d="M34.5 21C36.025 21 37.4875 21.6058 38.5659 22.6841C39.6442 23.7625 40.25 25.225 40.25 26.75C40.25 28.275 39.6442 29.7375 38.5659 30.8159C37.4875 31.8942 36.025 32.5 34.5 32.5C32.975 32.5 31.5125 31.8942 30.4341 30.8159C29.3558 29.7375 28.75 28.275 28.75 26.75C28.75 25.225 29.3558 23.7625 30.4341 22.6841C31.5125 21.6058 32.975 21 34.5 21ZM34.5 23.875C33.7375 23.875 33.0062 24.1779 32.4671 24.7171C31.9279 25.2562 31.625 25.9875 31.625 26.75C31.625 27.5125 31.9279 28.2438 32.4671 28.7829C33.0062 29.3221 33.7375 29.625 34.5 29.625C35.2625 29.625 35.9938 29.3221 36.5329 28.7829C37.0721 28.2438 37.375 27.5125 37.375 26.75C37.375 25.9875 37.0721 25.2562 36.5329 24.7171C35.9938 24.1779 35.2625 23.875 34.5 23.875ZM34.5 33.9375C38.3381 33.9375 46 35.8494 46 39.6875V44H23V39.6875C23 35.8494 30.6619 33.9375 34.5 33.9375ZM34.5 36.6687C30.2306 36.6687 25.7313 38.7675 25.7313 39.6875V41.2688H43.2688V39.6875C43.2688 38.7675 38.7694 36.6687 34.5 36.6687Z" fill="#303437"/>
</svg>
