<svg width="175" height="21" viewBox="0 0 175 21" fill="none" xmlns="http://www.w3.org/2000/svg">
<path d="M43.7982 0.431641H35.8032L29.5547 20.5685H35.1124L36.2638 16.5149H43.5256L44.6771 20.5685H50.4344L44.1973 0.431641H43.7982ZM37.6571 11.606L39.3574 5.59494H40.4129L42.1324 11.606H37.6571Z" fill="white"/>
<path d="M151.306 0.431641H143.311L137.062 20.5685H142.624L143.775 16.5149H151.037L152.189 20.5685H157.946L151.709 0.431641H151.306ZM145.165 11.606L146.865 5.59494H147.925L149.644 11.606H145.165Z" fill="white"/>
<path d="M55.3182 0.431641H52.3359V20.5685H57.7823V5.61036H66.3491V0.431641H57.7823H55.3182Z" fill="white"/>
<path d="M77.7553 0.431641H68.5859V20.5685H74.0438V14.6423H77.7669C82.8409 14.6423 85.4202 11.448 85.4202 7.53696C85.4202 3.62595 82.8294 0.431641 77.7553 0.431641ZM77.7553 9.75256H74.0438V5.32136H77.7669C79.2599 5.32136 79.9738 6.32705 79.9738 7.53696C79.9738 8.74687 79.2484 9.75256 77.7553 9.75256Z" fill="white"/>
<path d="M97.9344 0C91.8279 0 87.1875 4.54679 87.1875 10.5C87.1875 16.4532 91.8279 21 97.9344 21C104.041 21 108.681 16.4571 108.681 10.5C108.681 4.54293 104.037 0 97.9344 0ZM97.9344 15.5361C95.0097 15.5361 92.9179 13.4361 92.9179 10.5C92.9179 7.56385 95.0097 5.46385 97.9344 5.46385C100.859 5.46385 102.947 7.56385 102.947 10.5039C102.947 13.4439 100.855 15.5361 97.9344 15.5361Z" fill="white"/>
<path d="M129.632 0.431641H127.855L123.253 9.18228L118.712 0.431641H116.735H113.841H111.289V20.5685H116.735V8.2498L121.061 16.5149H125.245L129.632 8.18815V20.5685H135.074V0.431641H132.468H129.632Z" fill="white"/>
<path d="M174.759 0.431641H168.169H162.723H156.133V5.61036H162.723V20.5685H168.169V5.61036H174.759V0.431641Z" fill="white"/>
<path d="M21.2481 0.431641L13.5449 4.92449L5.8417 0.431641L0 10.5309L7.80684 15.0854V20.5685H19.4403V14.9929L27.0783 10.5309L21.2481 0.431641ZM13.5449 7.03605L15.5945 10.5771H11.4992L13.5449 7.03605ZM7.80684 13.5403L1.81929 10.0454L6.32531 2.25806L12.6353 5.93788L9.94855 10.5617L9.18091 11.8988L9.13869 11.972L8.12925 13.7175L7.80684 13.5403ZM18.1085 19.2315H9.13869V14.6423L10.7239 11.9065H16.3698L18.1085 14.9159V19.2315ZM18.9644 13.7252L18.1085 12.2533L17.9089 11.9065L17.1413 10.5694L14.4546 5.94559L20.7607 2.26577L25.2744 10.0454L19.4403 13.4478L18.9644 13.7252Z" fill="white"/>
</svg>
