<svg width="24" height="25" viewBox="0 0 24 25" fill="none" xmlns="http://www.w3.org/2000/svg">
<path d="M16.36 13.2059C18.31 13.8659 20 14.9459 20 16.4459V21.4459H4V16.4459C4 14.9459 5.69 13.8659 7.65 13.2059L8.27 14.4459L8.5 14.9459C7 15.4059 5.9 16.0659 5.9 16.4459V19.5459H10.12L11 14.4759L10.06 12.5959C10.68 12.5259 11.33 12.4759 12 12.4759C12.67 12.4759 13.32 12.5259 13.94 12.5959L13 14.4759L13.88 19.5459H18.1V16.4459C18.1 16.0659 17 15.4059 15.5 14.9459L15.73 14.4459L16.36 13.2059ZM12 5.44592C10.9 5.44592 10 6.34592 10 7.44592C10 8.54592 10.9 9.44592 12 9.44592C13.1 9.44592 14 8.54592 14 7.44592C14 6.34592 13.1 5.44592 12 5.44592ZM12 11.4459C9.79 11.4459 8 9.65592 8 7.44592C8 5.23592 9.79 3.44592 12 3.44592C14.21 3.44592 16 5.23592 16 7.44592C16 9.65592 14.21 11.4459 12 11.4459Z" fill="#303437"/>
</svg>
