<svg width="30" height="30" viewBox="0 0 30 30" fill="none" xmlns="http://www.w3.org/2000/svg">
<path d="M20.45 15.95C22.8875 16.775 25 18.125 25 20V26.25H5V20C5 18.125 7.1125 16.775 9.5625 15.95L10.3375 17.5L10.625 18.125C8.75 18.7 7.375 19.525 7.375 20V23.875H12.65L13.75 17.5375L12.575 15.1875C13.35 15.1 14.1625 15.0375 15 15.0375C15.8375 15.0375 16.65 15.1 17.425 15.1875L16.25 17.5375L17.35 23.875H22.625V20C22.625 19.525 21.25 18.7 19.375 18.125L19.6625 17.5L20.45 15.95ZM15 6.25C13.625 6.25 12.5 7.375 12.5 8.75C12.5 10.125 13.625 11.25 15 11.25C16.375 11.25 17.5 10.125 17.5 8.75C17.5 7.375 16.375 6.25 15 6.25ZM15 13.75C12.2375 13.75 10 11.5125 10 8.75C10 5.9875 12.2375 3.75 15 3.75C17.7625 3.75 20 5.9875 20 8.75C20 11.5125 17.7625 13.75 15 13.75Z" fill="#2362CB"/>
</svg>
