<svg width="35" height="35" viewBox="0 0 35 35" fill="none" xmlns="http://www.w3.org/2000/svg">
<circle cx="17.5" cy="17.5" r="17.5" fill="#004B91"/>
<path d="M22.9091 10L17.504 13.3467L12.0989 10L8 17.523L13.4778 20.9156V25H21.6407V20.8467L27 17.523L22.9091 10ZM17.504 14.9196L18.9422 17.5574H16.0686L17.504 14.9196ZM13.4778 19.7646L9.27654 17.1613L12.4383 11.3605L16.8658 14.1016L14.9806 17.5459L14.442 18.5419L14.4123 18.5964L13.704 19.8967L13.4778 19.7646ZM20.7062 24.004H14.4123V20.5855L15.5246 18.5476H19.4862L20.7062 20.7893V24.004ZM21.3067 19.9024L20.7062 18.806L20.5661 18.5476L20.0275 17.5517L18.1423 14.1073L22.5671 11.3662L25.7342 17.1613L21.6407 19.6958L21.3067 19.9024Z" fill="white"/>
</svg>
