<svg width="350" height="80" viewBox="0 0 350 80" fill="none" xmlns="http://www.w3.org/2000/svg">
<path d="M70.2389 0.836468L57.9806 39.9315H68.8836L71.1425 32.0616H85.3886L87.6475 39.9315H98.9419L86.7063 0.836468H70.2389ZM73.8757 22.531L77.2114 10.8608H79.282L82.6553 22.531H73.8757Z" fill="white"/>
<path d="M281.14 0.836468L268.882 39.9315H279.793L282.051 32.0616H296.298L298.556 39.9315H309.851L297.615 0.836468H281.14ZM284.777 22.531L288.113 10.8608H290.191L293.564 22.531H284.777Z" fill="white"/>
<path d="M102.675 0.836468V39.9315H113.359V10.8908H130.165V0.836468H102.675Z" fill="white"/>
<path d="M152.534 0.836468H134.546V39.9315H145.253V28.4259H152.557C162.511 28.4259 167.571 22.2243 167.571 14.6312C167.571 7.03811 162.489 0.836468 152.534 0.836468ZM152.534 18.9327H145.253V10.3297H152.557C155.486 10.3297 156.887 12.2822 156.887 14.6312C156.887 16.9802 155.463 18.9327 152.534 18.9327Z" fill="white"/>
<path d="M192.125 0C180.145 0 171.042 8.82743 171.042 20.3854C171.042 31.9433 180.145 40.7707 192.125 40.7707C204.105 40.7707 213.208 31.9508 213.208 20.3854C213.208 8.81994 204.097 0 192.125 0ZM192.125 30.1629C186.387 30.1629 182.284 26.0858 182.284 20.3854C182.284 14.6849 186.387 10.6079 192.125 10.6079C197.863 10.6079 201.959 14.6849 201.959 20.3929C201.959 26.1008 197.855 30.1629 192.125 30.1629Z" fill="white"/>
<path d="M250.818 0.836468L241.79 17.8255L232.882 0.836468H218.32V39.9315H229.004V16.0152L237.49 32.0616H245.698L254.304 15.8955V39.9315H264.981V0.836468H250.818Z" fill="white"/>
<path d="M342.845 0.836468H306.304V10.8908H319.232V39.9315H329.917V10.8908H342.845V0.836468Z" fill="white"/>
<path d="M41.6842 0.836468L26.5721 9.55917L11.4601 0.836468L0 20.4438L15.3153 29.2862V39.9315H38.1377V29.1067L53.1217 20.4438L41.6842 0.836468ZM26.5721 13.6587L30.593 20.5336H22.5588L26.5721 13.6587ZM15.3153 26.2864L3.56905 19.5012L12.4089 4.3824L24.7876 11.5266L19.5169 20.5037L18.0109 23.0995L17.9281 23.2417L15.9478 26.6305L15.3153 26.2864ZM35.5249 37.3357H17.9281V28.4259L21.0378 23.1145H32.114L35.5249 28.9571V37.3357ZM37.204 26.6455L35.5249 23.7878L35.1334 23.1145L33.6274 20.5186L28.3567 11.5416L40.7279 4.39736L49.5828 19.5012L37.204 26.6455Z" fill="white"/>
<path d="M14.4731 60.2579V75.6664H11.2451V62.9063H5.00033V75.6664H1.77236V60.2579H14.4731Z" fill="white"/>
<path d="M17.0327 75.6664L17.0177 73.1234H17.4023C17.6738 73.1234 17.9076 73.0582 18.1037 72.9278C18.3048 72.7923 18.4708 72.5742 18.6015 72.2732C18.7322 71.9723 18.8353 71.5735 18.9107 71.077C18.9861 70.5754 19.0364 69.9584 19.0615 69.2261L19.2501 64.1101H28.0591V75.6664H24.9971V66.6305H22.1387L21.9577 70.1591C21.9124 71.1271 21.7943 71.9597 21.6032 72.6569C21.4172 73.3541 21.1582 73.9259 20.8264 74.3723C20.4945 74.8137 20.0948 75.1397 19.6272 75.3504C19.1596 75.561 18.6166 75.6664 17.9981 75.6664H17.0327Z" fill="white"/>
<path d="M33.8091 71.4381L37.9798 64.1101H41.1474V75.6664H38.0854V68.3158L33.9297 75.6664H30.7395V64.1101H33.8091V71.4381Z" fill="white"/>
<path d="M42.7493 66.6305V64.1101H53.2477V66.6305H49.5144V75.6664H46.4524V66.6305H42.7493Z" fill="white"/>
<path d="M55.385 75.6664V64.1101H58.5979V68.5942H59.503L62.6555 64.1101H66.4265L62.3312 69.8431L66.4718 75.6664H62.6555L59.7971 71.566H58.5979V75.6664H55.385Z" fill="white"/>
<path d="M71.3223 75.8846C70.5832 75.8846 69.9245 75.7567 69.3463 75.5009C68.7681 75.24 68.3106 74.8563 67.9737 74.3497C67.6418 73.8381 67.4759 73.2011 67.4759 72.4387C67.4759 71.7967 67.5941 71.2575 67.8304 70.8212C68.0667 70.3848 68.3885 70.0337 68.7958 69.7678C69.203 69.502 69.6656 69.3014 70.1835 69.1659C70.7064 69.0305 71.2544 68.9352 71.8276 68.8801C72.5014 68.8098 73.0444 68.7446 73.4567 68.6844C73.869 68.6192 74.1682 68.5239 74.3542 68.3985C74.5402 68.2732 74.6333 68.0876 74.6333 67.8418V67.7966C74.6333 67.3201 74.4824 66.9515 74.1807 66.6907C73.8841 66.4299 73.4617 66.2994 72.9137 66.2994C72.3355 66.2994 71.8754 66.4273 71.5335 66.6831C71.1916 66.9339 70.9653 67.2499 70.8547 67.6311L67.8832 67.3904C68.034 66.6882 68.3307 66.0813 68.7731 65.5696C69.2156 65.053 69.7863 64.6568 70.4852 64.3809C71.1891 64.1 72.0036 63.9596 72.9288 63.9596C73.5723 63.9596 74.1883 64.0348 74.7766 64.1853C75.3699 64.3358 75.8953 64.569 76.3528 64.885C76.8154 65.201 77.1799 65.6073 77.4464 66.1038C77.7129 66.5954 77.8461 67.1847 77.8461 67.8719V75.6664H74.7992V74.0638H74.7087C74.5226 74.425 74.2737 74.7435 73.962 75.0193C73.6503 75.2902 73.2757 75.5034 72.8383 75.6589C72.4008 75.8093 71.8955 75.8846 71.3223 75.8846ZM72.2424 73.6726C72.7151 73.6726 73.1324 73.5798 73.4944 73.3942C73.8564 73.2036 74.1405 72.9478 74.3467 72.6268C74.5528 72.3058 74.6559 71.9422 74.6559 71.5359V70.3095C74.5553 70.3748 74.417 70.4349 74.2411 70.4901C74.0701 70.5403 73.8765 70.5879 73.6603 70.6331C73.4441 70.6732 73.2279 70.7108 73.0117 70.7459C72.7955 70.776 72.5994 70.8036 72.4235 70.8287C72.0464 70.8838 71.717 70.9716 71.4355 71.092C71.1539 71.2124 70.9352 71.3754 70.7793 71.581C70.6234 71.7817 70.5455 72.0325 70.5455 72.3334C70.5455 72.7698 70.7039 73.1033 71.0206 73.334C71.3424 73.5598 71.7497 73.6726 72.2424 73.6726Z" fill="white"/>
<path d="M85.0301 66.6305V64.1101H95.5286V66.6305H91.7953V75.6664H88.7332V66.6305H85.0301Z" fill="white"/>
<path d="M100.554 75.8846C99.8154 75.8846 99.1567 75.7567 98.5785 75.5009C98.0003 75.24 97.5427 74.8563 97.2058 74.3497C96.874 73.8381 96.7081 73.2011 96.7081 72.4387C96.7081 71.7967 96.8262 71.2575 97.0626 70.8212C97.2989 70.3848 97.6207 70.0337 98.0279 69.7678C98.4352 69.502 98.8978 69.3014 99.4156 69.1659C99.9386 69.0305 100.487 68.9352 101.06 68.8801C101.734 68.8098 102.277 68.7446 102.689 68.6844C103.101 68.6192 103.4 68.5239 103.586 68.3985C103.772 68.2732 103.865 68.0876 103.865 67.8418V67.7966C103.865 67.3201 103.715 66.9515 103.413 66.6907C103.116 66.4299 102.694 66.2994 102.146 66.2994C101.568 66.2994 101.108 66.4273 100.766 66.6831C100.424 66.9339 100.197 67.2499 100.087 67.6311L97.1153 67.3904C97.2662 66.6882 97.5628 66.0813 98.0053 65.5696C98.4478 65.053 99.0184 64.6568 99.7173 64.3809C100.421 64.1 101.236 63.9596 102.161 63.9596C102.805 63.9596 103.42 64.0348 104.009 64.1853C104.602 64.3358 105.127 64.569 105.585 64.885C106.048 65.201 106.412 65.6073 106.679 66.1038C106.945 66.5954 107.078 67.1847 107.078 67.8719V75.6664H104.031V74.0638H103.941C103.755 74.425 103.506 74.7435 103.194 75.0193C102.882 75.2902 102.508 75.5034 102.07 75.6589C101.633 75.8093 101.128 75.8846 100.554 75.8846ZM101.475 73.6726C101.947 73.6726 102.365 73.5798 102.727 73.3942C103.089 73.2036 103.373 72.9478 103.579 72.6268C103.785 72.3058 103.888 71.9422 103.888 71.5359V70.3095C103.787 70.3748 103.649 70.4349 103.473 70.4901C103.302 70.5403 103.109 70.5879 102.893 70.6331C102.676 70.6732 102.46 70.7108 102.244 70.7459C102.028 70.776 101.832 70.8036 101.656 70.8287C101.279 70.8838 100.949 70.9716 100.668 71.092C100.386 71.2124 100.167 71.3754 100.011 71.581C99.8556 71.7817 99.7777 72.0325 99.7777 72.3334C99.7777 72.7698 99.936 73.1033 100.253 73.334C100.575 73.5598 100.982 73.6726 101.475 73.6726Z" fill="white"/>
<path d="M120.1 75.8921C118.913 75.8921 117.893 75.6413 117.038 75.1397C116.188 74.6331 115.534 73.9309 115.077 73.0331C114.624 72.1353 114.398 71.102 114.398 69.9334C114.398 68.7496 114.627 67.7114 115.084 66.8186C115.547 65.9208 116.203 65.2211 117.053 64.7195C117.903 64.2129 118.913 63.9596 120.085 63.9596C121.095 63.9596 121.98 64.1427 122.739 64.5088C123.499 64.875 124.1 65.3891 124.542 66.0512C124.984 66.7132 125.228 67.4907 125.274 68.3835H122.242C122.156 67.8067 121.93 67.3427 121.563 66.9916C121.201 66.6355 120.726 66.4574 120.138 66.4574C119.64 66.4574 119.205 66.5929 118.833 66.8637C118.466 67.1296 118.179 67.5183 117.973 68.0299C117.767 68.5415 117.664 69.1609 117.664 69.8882C117.664 70.6255 117.764 71.2525 117.965 71.7691C118.172 72.2858 118.461 72.6795 118.833 72.9503C119.205 73.2212 119.64 73.3566 120.138 73.3566C120.505 73.3566 120.834 73.2814 121.125 73.1309C121.422 72.9804 121.666 72.7622 121.857 72.4763C122.053 72.1854 122.181 71.8368 122.242 71.4306H125.274C125.223 72.3133 124.982 73.0908 124.55 73.7629C124.122 74.43 123.531 74.9516 122.777 75.3278C122.023 75.704 121.131 75.8921 120.1 75.8921Z" fill="white"/>
<path d="M130.824 75.8846C130.085 75.8846 129.426 75.7567 128.848 75.5009C128.269 75.24 127.812 74.8563 127.475 74.3497C127.143 73.8381 126.977 73.2011 126.977 72.4387C126.977 71.7967 127.095 71.2575 127.332 70.8212C127.568 70.3848 127.89 70.0337 128.297 69.7678C128.704 69.502 129.167 69.3014 129.685 69.1659C130.208 69.0305 130.756 68.9352 131.329 68.8801C132.003 68.8098 132.546 68.7446 132.958 68.6844C133.37 68.6192 133.67 68.5239 133.856 68.3985C134.042 68.2732 134.135 68.0876 134.135 67.8418V67.7966C134.135 67.3201 133.984 66.9515 133.682 66.6907C133.385 66.4299 132.963 66.2994 132.415 66.2994C131.837 66.2994 131.377 66.4273 131.035 66.6831C130.693 66.9339 130.467 67.2499 130.356 67.6311L127.385 67.3904C127.535 66.6882 127.832 66.0813 128.274 65.5696C128.717 65.053 129.288 64.6568 129.987 64.3809C130.69 64.1 131.505 63.9596 132.43 63.9596C133.074 63.9596 133.69 64.0348 134.278 64.1853C134.871 64.3358 135.397 64.569 135.854 64.885C136.317 65.201 136.681 65.6073 136.948 66.1038C137.214 66.5954 137.347 67.1847 137.347 67.8719V75.6664H134.301V74.0638H134.21C134.024 74.425 133.775 74.7435 133.463 75.0193C133.152 75.2902 132.777 75.5034 132.34 75.6589C131.902 75.8093 131.397 75.8846 130.824 75.8846ZM131.744 73.6726C132.216 73.6726 132.634 73.5798 132.996 73.3942C133.358 73.2036 133.642 72.9478 133.848 72.6268C134.054 72.3058 134.157 71.9422 134.157 71.5359V70.3095C134.057 70.3748 133.918 70.4349 133.742 70.4901C133.571 70.5403 133.378 70.5879 133.162 70.6331C132.945 70.6732 132.729 70.7108 132.513 70.7459C132.297 70.776 132.101 70.8036 131.925 70.8287C131.548 70.8838 131.218 70.9716 130.937 71.092C130.655 71.2124 130.437 71.3754 130.281 71.581C130.125 71.7817 130.047 72.0325 130.047 72.3334C130.047 72.7698 130.205 73.1033 130.522 73.334C130.844 73.5598 131.251 73.6726 131.744 73.6726Z" fill="white"/>
<path d="M148.092 68.6092V71.1296H142.043V68.6092H148.092ZM143.099 64.1101V75.6664H140.03V64.1101H143.099ZM150.106 64.1101V75.6664H147.059V64.1101H150.106Z" fill="white"/>
<path d="M151.625 66.6305V64.1101H162.123V66.6305H158.39V75.6664H155.328V66.6305H151.625Z" fill="white"/>
<path d="M169.125 75.8921C167.933 75.8921 166.908 75.6513 166.048 75.1698C165.193 74.6833 164.535 73.9961 164.072 73.1083C163.609 72.2155 163.378 71.1597 163.378 69.9409C163.378 68.7521 163.609 67.7089 164.072 66.8111C164.535 65.9132 165.186 65.2135 166.025 64.712C166.87 64.2104 167.861 63.9596 168.997 63.9596C169.761 63.9596 170.473 64.0825 171.131 64.3282C171.795 64.569 172.373 64.9326 172.866 65.4192C173.364 65.9057 173.751 66.5176 174.027 67.2549C174.304 67.9872 174.442 68.8449 174.442 69.828V70.7083H164.66V68.7221H171.418C171.418 68.2606 171.317 67.8518 171.116 67.4957C170.915 67.1396 170.636 66.8612 170.279 66.6606C169.927 66.4549 169.517 66.3521 169.05 66.3521C168.562 66.3521 168.13 66.465 167.752 66.6907C167.38 66.9114 167.089 67.2098 166.878 67.586C166.666 67.9571 166.558 68.371 166.553 68.8274V70.7158C166.553 71.2876 166.659 71.7817 166.87 72.198C167.086 72.6143 167.39 72.9353 167.783 73.161C168.175 73.3867 168.64 73.4996 169.178 73.4996C169.535 73.4996 169.862 73.4494 170.158 73.3491C170.455 73.2488 170.709 73.0983 170.92 72.8977C171.131 72.6971 171.292 72.4513 171.403 72.1604L174.374 72.356C174.223 73.0682 173.914 73.6902 173.447 74.2218C172.984 74.7485 172.386 75.1598 171.652 75.4557C170.923 75.7466 170.08 75.8921 169.125 75.8921Z" fill="white"/>
<path d="M179.206 64.1101L181.333 68.1503L183.512 64.1101H186.808L183.452 69.8882L186.899 75.6664H183.618L181.333 71.6713L179.085 75.6664H175.767L179.206 69.8882L175.888 64.1101H179.206Z" fill="white"/>
<path d="M196.968 68.6092V71.1296H190.92V68.6092H196.968ZM191.976 64.1101V75.6664H188.906V64.1101H191.976ZM198.982 64.1101V75.6664H195.935V64.1101H198.982Z" fill="white"/>
<path d="M201.664 75.6664V64.1101H204.877V75.6664H201.664ZM203.278 62.6204C202.801 62.6204 202.391 62.4624 202.049 62.1464C201.712 61.8254 201.544 61.4417 201.544 60.9953C201.544 60.5539 201.712 60.1752 202.049 59.8592C202.391 59.5382 202.801 59.3777 203.278 59.3777C203.756 59.3777 204.163 59.5382 204.5 59.8592C204.842 60.1752 205.013 60.5539 205.013 60.9953C205.013 61.4417 204.842 61.8254 204.5 62.1464C204.163 62.4624 203.756 62.6204 203.278 62.6204Z" fill="white"/>
<path d="M207.641 75.6664V64.1101H210.853V68.5942H211.759L214.911 64.1101H218.682L214.587 69.8431L218.727 75.6664H214.911L212.053 71.566H210.853V75.6664H207.641Z" fill="white"/>
<path d="M223.578 75.8846C222.839 75.8846 222.18 75.7567 221.602 75.5009C221.024 75.24 220.566 74.8563 220.229 74.3497C219.897 73.8381 219.731 73.2011 219.731 72.4387C219.731 71.7967 219.85 71.2575 220.086 70.8212C220.322 70.3848 220.644 70.0337 221.051 69.7678C221.459 69.502 221.921 69.3014 222.439 69.1659C222.962 69.0305 223.51 68.9352 224.083 68.8801C224.757 68.8098 225.3 68.7446 225.712 68.6844C226.125 68.6192 226.424 68.5239 226.61 68.3985C226.796 68.2732 226.889 68.0876 226.889 67.8418V67.7966C226.889 67.3201 226.738 66.9515 226.436 66.6907C226.14 66.4299 225.717 66.2994 225.169 66.2994C224.591 66.2994 224.131 66.4273 223.789 66.6831C223.447 66.9339 223.221 67.2499 223.11 67.6311L220.139 67.3904C220.29 66.6882 220.586 66.0813 221.029 65.5696C221.471 65.053 222.042 64.6568 222.741 64.3809C223.445 64.1 224.259 63.9596 225.184 63.9596C225.828 63.9596 226.444 64.0348 227.032 64.1853C227.625 64.3358 228.151 64.569 228.608 64.885C229.071 65.201 229.435 65.6073 229.702 66.1038C229.968 66.5954 230.102 67.1847 230.102 67.8719V75.6664H227.055V74.0638H226.964C226.778 74.425 226.529 74.7435 226.218 75.0193C225.906 75.2902 225.531 75.5034 225.094 75.6589C224.656 75.8093 224.151 75.8846 223.578 75.8846ZM224.498 73.6726C224.971 73.6726 225.388 73.5798 225.75 73.3942C226.112 73.2036 226.396 72.9478 226.602 72.6268C226.808 72.3058 226.911 71.9422 226.911 71.5359V70.3095C226.811 70.3748 226.673 70.4349 226.497 70.4901C226.326 70.5403 226.132 70.5879 225.916 70.6331C225.7 70.6732 225.483 70.7108 225.267 70.7459C225.051 70.776 224.855 70.8036 224.679 70.8287C224.302 70.8838 223.973 70.9716 223.691 71.092C223.409 71.2124 223.191 71.3754 223.035 71.581C222.879 71.7817 222.801 72.0325 222.801 72.3334C222.801 72.7698 222.959 73.1033 223.276 73.334C223.598 73.5598 224.005 73.6726 224.498 73.6726Z" fill="white"/>
<path d="M237.286 66.6305V64.1101H247.784V66.6305H244.051V75.6664H240.989V66.6305H237.286Z" fill="white"/>
<path d="M251.905 80C251.498 80 251.116 79.9674 250.759 79.9022C250.407 79.842 250.115 79.7643 249.884 79.669L250.608 77.2764C250.985 77.3918 251.324 77.4545 251.626 77.4645C251.933 77.4746 252.197 77.4043 252.418 77.2539C252.644 77.1034 252.828 76.8476 252.968 76.4865L253.157 75.9974L249.001 64.1101H252.38L254.779 72.5967H254.899L257.32 64.1101H260.722L256.219 76.9153C256.003 77.5373 255.709 78.079 255.337 78.5404C254.97 79.0069 254.504 79.3655 253.941 79.6163C253.378 79.8721 252.699 80 251.905 80Z" fill="white"/>
<path d="M261.952 66.6305V64.1101H272.45V66.6305H268.717V75.6664H265.655V66.6305H261.952Z" fill="white"/>
<path d="M279.693 75.6664V64.1101H282.906V75.6664H279.693ZM281.307 62.6204C280.829 62.6204 280.419 62.4624 280.078 62.1464C279.741 61.8254 279.572 61.4417 279.572 60.9953C279.572 60.5539 279.741 60.1752 280.078 59.8592C280.419 59.5382 280.829 59.3777 281.307 59.3777C281.785 59.3777 282.192 59.5382 282.529 59.8592C282.871 60.1752 283.042 60.5539 283.042 60.9953C283.042 61.4417 282.871 61.8254 282.529 62.1464C282.192 62.4624 281.785 62.6204 281.307 62.6204Z" fill="white"/>
<path d="M290.178 72.3936H293.293C293.308 72.7748 293.479 73.0757 293.806 73.2964C294.133 73.5171 294.555 73.6275 295.073 73.6275C295.596 73.6275 296.036 73.5071 296.393 73.2663C296.75 73.0206 296.928 72.6695 296.928 72.213C296.928 71.9321 296.858 71.6889 296.717 71.4832C296.577 71.2726 296.38 71.107 296.129 70.9867C295.878 70.8663 295.586 70.8061 295.254 70.8061H293.587V68.707H295.254C295.752 68.707 296.134 68.5916 296.401 68.3609C296.672 68.1302 296.808 67.8418 296.808 67.4957C296.808 67.1045 296.667 66.791 296.385 66.5552C296.109 66.3145 295.734 66.1941 295.262 66.1941C294.784 66.1941 294.387 66.3019 294.07 66.5176C293.758 66.7283 293.597 67.0042 293.587 67.3452H290.488C290.498 66.653 290.706 66.0537 291.114 65.5471C291.526 65.0405 292.079 64.6493 292.773 64.3734C293.472 64.0975 294.254 63.9596 295.118 63.9596C296.064 63.9596 296.878 64.0925 297.562 64.3583C298.251 64.6192 298.779 64.9928 299.146 65.4794C299.518 65.9659 299.704 66.5452 299.704 67.2173C299.704 67.8293 299.503 68.3409 299.101 68.7521C298.698 69.1634 298.135 69.4569 297.411 69.6324V69.7528C297.889 69.7829 298.321 69.9108 298.708 70.1365C299.096 70.3622 299.405 70.6732 299.636 71.0694C299.867 71.4607 299.983 71.9246 299.983 72.4613C299.983 73.1786 299.772 73.793 299.349 74.3046C298.932 74.8162 298.354 75.2099 297.615 75.4858C296.881 75.7567 296.038 75.8921 295.088 75.8921C294.163 75.8921 293.333 75.7592 292.599 75.4933C291.87 75.2225 291.29 74.8262 290.857 74.3046C290.43 73.783 290.204 73.146 290.178 72.3936Z" fill="white"/>
<path d="M305.446 75.8846C304.707 75.8846 304.049 75.7567 303.47 75.5009C302.892 75.24 302.435 74.8563 302.098 74.3497C301.766 73.8381 301.6 73.2011 301.6 72.4387C301.6 71.7967 301.718 71.2575 301.954 70.8212C302.191 70.3848 302.512 70.0337 302.92 69.7678C303.327 69.502 303.79 69.3014 304.307 69.1659C304.83 69.0305 305.378 68.9352 305.952 68.8801C306.625 68.8098 307.168 68.7446 307.581 68.6844C307.993 68.6192 308.292 68.5239 308.478 68.3985C308.664 68.2732 308.757 68.0876 308.757 67.8418V67.7966C308.757 67.3201 308.606 66.9515 308.305 66.6907C308.008 66.4299 307.586 66.2994 307.038 66.2994C306.459 66.2994 305.999 66.4273 305.657 66.6831C305.316 66.9339 305.089 67.2499 304.979 67.6311L302.007 67.3904C302.158 66.6882 302.455 66.0813 302.897 65.5696C303.34 65.053 303.91 64.6568 304.609 64.3809C305.313 64.1 306.128 63.9596 307.053 63.9596C307.696 63.9596 308.312 64.0348 308.901 64.1853C309.494 64.3358 310.019 64.569 310.477 64.885C310.939 65.201 311.304 65.6073 311.57 66.1038C311.837 66.5954 311.97 67.1847 311.97 67.8719V75.6664H308.923V74.0638H308.833C308.647 74.425 308.398 74.7435 308.086 75.0193C307.774 75.2902 307.4 75.5034 306.962 75.6589C306.525 75.8093 306.019 75.8846 305.446 75.8846ZM306.366 73.6726C306.839 73.6726 307.256 73.5798 307.618 73.3942C307.98 73.2036 308.264 72.9478 308.471 72.6268C308.677 72.3058 308.78 71.9422 308.78 71.5359V70.3095C308.679 70.3748 308.541 70.4349 308.365 70.4901C308.194 70.5403 308.001 70.5879 307.784 70.6331C307.568 70.6732 307.352 70.7108 307.136 70.7459C306.92 70.776 306.723 70.8036 306.547 70.8287C306.17 70.8838 305.841 70.9716 305.559 71.092C305.278 71.2124 305.059 71.3754 304.903 71.581C304.747 71.7817 304.669 72.0325 304.669 72.3334C304.669 72.7698 304.828 73.1033 305.145 73.334C305.466 73.5598 305.874 73.6726 306.366 73.6726Z" fill="white"/>
<path d="M314.652 80V64.1101H317.82V66.0512H317.963C318.104 65.7402 318.308 65.4242 318.574 65.1032C318.846 64.7772 319.198 64.5063 319.63 64.2906C320.068 64.0699 320.611 63.9596 321.259 63.9596C322.104 63.9596 322.883 64.1803 323.597 64.6217C324.311 65.058 324.882 65.7176 325.309 66.6004C325.737 67.4781 325.95 68.5791 325.95 69.9033C325.95 71.1923 325.742 72.2807 325.324 73.1685C324.912 74.0513 324.349 74.7209 323.635 75.1773C322.926 75.6288 322.131 75.8545 321.252 75.8545C320.628 75.8545 320.098 75.7517 319.66 75.546C319.228 75.3404 318.873 75.082 318.597 74.7711C318.32 74.4551 318.109 74.1366 317.963 73.8156H317.865V80H314.652ZM317.797 69.8882C317.797 70.5754 317.893 71.1748 318.084 71.6864C318.275 72.198 318.552 72.5967 318.914 72.8826C319.276 73.1635 319.716 73.304 320.233 73.304C320.756 73.304 321.199 73.161 321.561 72.8751C321.923 72.5842 322.197 72.1829 322.383 71.6713C322.574 71.1547 322.669 70.5603 322.669 69.8882C322.669 69.2211 322.576 68.6343 322.39 68.1277C322.204 67.6211 321.93 67.2248 321.568 66.9389C321.206 66.6531 320.761 66.5101 320.233 66.5101C319.711 66.5101 319.268 66.648 318.906 66.9239C318.549 67.1998 318.275 67.591 318.084 68.0976C317.893 68.6042 317.797 69.2011 317.797 69.8882Z" fill="white"/>
<path d="M331.585 75.8846C330.846 75.8846 330.187 75.7567 329.609 75.5009C329.031 75.24 328.573 74.8563 328.237 74.3497C327.905 73.8381 327.739 73.2011 327.739 72.4387C327.739 71.7967 327.857 71.2575 328.093 70.8212C328.33 70.3848 328.651 70.0337 329.059 69.7678C329.466 69.502 329.928 69.3014 330.446 69.1659C330.969 69.0305 331.517 68.9352 332.09 68.8801C332.764 68.8098 333.307 68.7446 333.72 68.6844C334.132 68.6192 334.431 68.5239 334.617 68.3985C334.803 68.2732 334.896 68.0876 334.896 67.8418V67.7966C334.896 67.3201 334.745 66.9515 334.444 66.6907C334.147 66.4299 333.725 66.2994 333.177 66.2994C332.598 66.2994 332.138 66.4273 331.796 66.6831C331.454 66.9339 331.228 67.2499 331.118 67.6311L328.146 67.3904C328.297 66.6882 328.594 66.0813 329.036 65.5696C329.478 65.053 330.049 64.6568 330.748 64.3809C331.452 64.1 332.266 63.9596 333.192 63.9596C333.835 63.9596 334.451 64.0348 335.039 64.1853C335.633 64.3358 336.158 64.569 336.616 64.885C337.078 65.201 337.443 65.6073 337.709 66.1038C337.976 66.5954 338.109 67.1847 338.109 67.8719V75.6664H335.062V74.0638H334.972C334.785 74.425 334.537 74.7435 334.225 75.0193C333.913 75.2902 333.539 75.5034 333.101 75.6589C332.664 75.8093 332.158 75.8846 331.585 75.8846ZM332.505 73.6726C332.978 73.6726 333.395 73.5798 333.757 73.3942C334.119 73.2036 334.403 72.9478 334.61 72.6268C334.816 72.3058 334.919 71.9422 334.919 71.5359V70.3095C334.818 70.3748 334.68 70.4349 334.504 70.4901C334.333 70.5403 334.139 70.5879 333.923 70.6331C333.707 70.6732 333.491 70.7108 333.275 70.7459C333.058 70.776 332.862 70.8036 332.686 70.8287C332.309 70.8838 331.98 70.9716 331.698 71.092C331.417 71.2124 331.198 71.3754 331.042 71.581C330.886 71.7817 330.808 72.0325 330.808 72.3334C330.808 72.7698 330.967 73.1033 331.284 73.334C331.605 73.5598 332.013 73.6726 332.505 73.6726Z" fill="white"/>
<path d="M340.195 72.3936H343.31C343.325 72.7748 343.496 73.0757 343.823 73.2964C344.15 73.5171 344.572 73.6275 345.09 73.6275C345.613 73.6275 346.053 73.5071 346.41 73.2663C346.767 73.0206 346.945 72.6695 346.945 72.213C346.945 71.9321 346.875 71.6889 346.734 71.4832C346.594 71.2726 346.397 71.107 346.146 70.9867C345.895 70.8663 345.603 70.8061 345.271 70.8061H343.604V68.707H345.271C345.769 68.707 346.151 68.5916 346.418 68.3609C346.689 68.1302 346.825 67.8418 346.825 67.4957C346.825 67.1045 346.684 66.791 346.402 66.5552C346.126 66.3145 345.751 66.1941 345.279 66.1941C344.801 66.1941 344.404 66.3019 344.087 66.5176C343.775 66.7283 343.614 67.0042 343.604 67.3452H340.505C340.515 66.653 340.723 66.0537 341.131 65.5471C341.543 65.0405 342.096 64.6493 342.79 64.3734C343.489 64.0975 344.271 63.9596 345.135 63.9596C346.081 63.9596 346.895 64.0925 347.579 64.3583C348.268 64.6192 348.796 64.9928 349.163 65.4794C349.535 65.9659 349.721 66.5452 349.721 67.2173C349.721 67.8293 349.52 68.3409 349.118 68.7521C348.715 69.1634 348.152 69.4569 347.428 69.6324V69.7528C347.906 69.7829 348.338 69.9108 348.725 70.1365C349.113 70.3622 349.422 70.6732 349.653 71.0694C349.884 71.4607 350 71.9246 350 72.4613C350 73.1786 349.789 73.793 349.366 74.3046C348.949 74.8162 348.371 75.2099 347.632 75.4858C346.898 75.7567 346.056 75.8921 345.105 75.8921C344.18 75.8921 343.35 75.7592 342.616 75.4933C341.887 75.2225 341.307 74.8262 340.874 74.3046C340.447 73.783 340.221 73.146 340.195 72.3936Z" fill="white"/>
</svg>
