<svg width="30" height="30" viewBox="0 0 30 30" fill="none" xmlns="http://www.w3.org/2000/svg">
<path d="M23.5407 4L15.0064 9.13165L6.472 4L0 15.5352L8.64918 20.7373V27H21.5379V20.6316L30 15.5352L23.5407 4ZM15.0064 11.5434L17.2771 15.588H12.7399L15.0064 11.5434ZM8.64918 18.9724L2.01559 14.9807L7.0078 6.08611L13.9986 10.2891L11.022 15.5704L10.1715 17.0976L10.1247 17.1812L9.00638 19.1749L8.64918 18.9724ZM20.0624 25.4728H10.1247V20.2312L11.8809 17.1064H18.1361L20.0624 20.5436V25.4728ZM21.0106 19.1837L20.0624 17.5025L19.8412 17.1064L18.9908 15.5792L16.0142 10.2979L23.0007 6.09491L28.0014 14.9807L21.5379 18.8668L21.0106 19.1837Z" fill="#2362CB"/>
</svg>
