<svg width="28" height="21" viewBox="0 0 28 21" fill="none" xmlns="http://www.w3.org/2000/svg">
<path d="M21.9714 0L14.006 4.68542L6.04054 0L0 10.5321L8.07257 15.2819V21H20.1021V15.1854L28 10.5321L21.9714 0ZM14.006 6.88749L16.1253 10.5804H11.8906L14.006 6.88749ZM8.07257 13.6705L1.88122 10.0258L6.54061 1.90471L13.0653 5.74225L10.2872 10.5643L9.49341 11.9587L9.44975 12.035L8.40595 13.8553L8.07257 13.6705ZM18.7249 19.6056H9.44975V14.8197L11.0889 11.9667H16.927L18.7249 15.105V19.6056ZM19.6099 13.8634L18.7249 12.3284L18.5185 11.9667L17.7247 10.5723L14.9466 5.75029L21.4673 1.91274L26.1347 10.0258L20.1021 13.5741L19.6099 13.8634Z" fill="#2362CB"/>
</svg>
