<svg width="24" height="25" viewBox="0 0 24 25" fill="none" xmlns="http://www.w3.org/2000/svg">
<g clip-path="url(#clip0_902_12786)">
<path d="M9.49875 7.94599C10.3287 7.94599 10.9987 8.61599 10.9987 9.44599C10.9987 10.276 10.3287 10.946 9.49875 10.946C8.66875 10.946 7.99875 10.276 7.99875 9.44599C7.99875 8.61599 8.66875 7.94599 9.49875 7.94599ZM14.4987 14.946C15.3287 14.946 15.9987 15.616 15.9987 16.446C15.9987 17.276 15.3287 17.946 14.4987 17.946C13.6687 17.946 12.9987 17.276 12.9987 16.446C12.9987 15.616 13.6687 14.946 14.4987 14.946ZM8.40875 17.946L6.99875 16.536L15.5887 7.94599L16.9987 9.35599L8.40875 17.946ZM18.6488 3.79599L19.2588 7.65599L22.7688 9.44599L20.9988 12.946L22.7788 16.446L19.2388 18.236L18.6287 22.096L14.7387 21.486L11.9688 24.256L9.18875 21.446L5.32875 22.086L4.70875 18.196L1.21875 16.416L2.99875 12.916L1.22875 9.44599L4.73875 7.63599L5.34875 3.81599L9.21875 4.44599L11.9987 1.64099L14.7587 4.40599L18.6488 3.79599ZM20.0988 10.316L17.4988 8.94599L16.9987 6.05599L14.0988 6.47599L11.9987 4.44599L9.89875 6.47599L6.99875 6.05599L6.49875 8.94599L3.89875 10.316L5.19875 12.946L3.89875 15.576L6.49875 16.946L6.99875 19.836L9.89875 19.416L11.9987 21.446L14.0988 19.416L16.9987 19.836L17.4988 16.946L20.0988 15.576L18.7987 12.946L20.0988 10.316Z" fill="#303437"/>
</g>
<defs>
<clipPath id="clip0_902_12786">
<rect width="24" height="24" fill="white" transform="translate(0 0.945923)"/>
</clipPath>
</defs>
</svg>
