<svg width="156" height="24" viewBox="0 0 156 24" fill="none" xmlns="http://www.w3.org/2000/svg">
<path d="M0 3C0 1.34315 1.34315 0 3 0H33C34.6569 0 36 1.34315 36 3V21C36 22.6569 34.6569 24 33 24H3C1.34315 24 0 22.6569 0 21V3Z" fill="white"/>
<path d="M20.1712 9.80295C20.1206 9.65287 20.0543 9.52554 19.9115 9.51985H19.9025H19.7833H19.5539C19.5438 9.51872 19.5325 9.51758 19.5213 9.51758H19.4066C19.3953 9.51758 19.3841 9.51872 19.374 9.51985C19.2548 9.53804 19.1952 9.65856 19.1502 9.79954L17.3848 14.7873C17.3848 14.8532 17.4376 14.9067 17.5028 14.9067H17.8717C18.0178 14.9067 18.0932 14.785 18.137 14.6384L18.489 13.5992C18.5137 13.5276 18.5801 13.4798 18.6554 13.4798H20.6188C20.693 13.4798 20.7593 13.5276 20.7841 13.5981L21.1507 14.6486C21.1956 14.7953 21.2744 14.9169 21.4273 14.9169H21.813C21.8816 14.9169 21.9367 14.8635 21.9367 14.7975L20.1712 9.80295ZM18.7308 12.8897L19.6214 10.2657L20.5378 12.8897H18.7308Z" fill="#76A62D"/>
<path d="M25.3319 9.53359C25.2846 9.5154 25.0114 9.51767 25.0114 9.51767C24.8281 9.52222 24.7111 9.51767 24.6291 9.6325C24.6167 9.64955 24.6077 9.66775 24.5987 9.68594L23.5046 12.0792L22.3778 9.68707C22.3688 9.66888 22.3599 9.65069 22.3475 9.63364C22.2654 9.51881 22.1485 9.52222 21.9652 9.51881C21.9652 9.51881 21.6919 9.51653 21.6447 9.53472C21.5322 9.57793 21.6065 9.71777 21.6593 9.8326L23.0413 12.6204C23.1043 12.7477 23.1369 12.8876 23.1369 13.0297V14.7124C23.1369 14.826 23.228 14.9181 23.3404 14.9181H23.6294C23.7418 14.9181 23.8329 14.826 23.8329 14.7124V13.0376C23.8329 12.8955 23.8655 12.7557 23.9285 12.6283L25.3161 9.83146C25.3701 9.71663 25.4443 9.57679 25.3319 9.53359Z" fill="#76A62D"/>
<path d="M30.6134 12.1373L27.2961 9.3279C27.2714 9.30743 27.2354 9.30857 27.2129 9.33245L26.7227 9.84862L29.4315 12.1373L26.7227 14.4259L27.2129 14.9421C27.2354 14.966 27.2714 14.9671 27.2961 14.9467L30.6134 12.1373Z" fill="#76A62D"/>
<path d="M33.0001 12.1597L29.6829 9.35036C29.6581 9.32989 29.6221 9.33103 29.5997 9.35491L29.1094 9.87108L31.8183 12.1597L29.1094 14.4484L29.5997 14.9646C29.6221 14.9884 29.6581 14.9896 29.6829 14.9691L33.0001 12.1597Z" fill="#76A62D"/>
<path d="M7.06011 9.51367H6.6418C6.55409 9.51367 6.48438 9.5853 6.48438 9.67284V14.7379C6.48438 14.83 6.55859 14.9062 6.6508 14.9062H7.05336C7.14445 14.9062 7.21979 14.8311 7.21979 14.7379V9.67398C7.21866 9.5853 7.14782 9.51367 7.06011 9.51367Z" fill="#76A62D"/>
<path d="M5.56382 14.2627H3.69605V9.67284C3.69605 9.58416 3.62521 9.51367 3.53863 9.51367H3.15743C3.06972 9.51367 3 9.5853 3 9.67284V14.2638V14.6833C3 14.7879 3.08321 14.8721 3.18666 14.8721H3.69718H5.56494C5.6549 14.8721 5.72687 14.7993 5.72687 14.7084V14.4264C5.72574 14.3366 5.65265 14.2627 5.56382 14.2627Z" fill="#76A62D"/>
<path d="M16.8385 9.81177C16.6057 9.6526 16.2841 9.54004 15.669 9.54004H14.6986H14.4782C14.3365 9.54004 14.2207 9.65601 14.2207 9.8004V14.6392C14.2207 14.787 14.3388 14.9075 14.4861 14.9075H14.6907C14.8369 14.9075 14.9561 14.7882 14.9561 14.6392V12.8213C15.1765 12.8213 15.9389 12.8213 16.0289 12.8213C16.1334 12.8213 17.4761 12.6086 17.4761 11.1306C17.475 10.4871 17.1489 10.0255 16.8385 9.81177ZM15.7849 12.2642C15.7151 12.2642 15.0371 12.2642 15.0371 12.2642H14.955V10.0971H15.5465C15.9524 10.0971 16.1649 10.171 16.319 10.2768C16.5248 10.4178 16.7395 10.7225 16.7395 11.1477C16.7407 12.1243 15.8546 12.2642 15.7849 12.2642Z" fill="#76A62D"/>
<path d="M13.5397 15.0264C13.5104 15.0048 13.4778 14.9889 13.443 14.9752C13.1664 14.8684 12.7627 14.5853 12.5378 14.4386C12.3635 14.3249 12.3905 14.2351 12.4141 14.1976C12.4186 14.1919 12.4242 14.1851 12.4287 14.1794C12.4298 14.1782 12.4298 14.1782 12.4298 14.1782C12.8121 13.7041 13.0337 13.0288 13.0337 12.1761C13.0337 10.6685 12.3961 9.44629 10.6655 9.44629C9.07324 9.44629 8.30859 10.6685 8.30859 12.1761C8.30859 13.6837 8.82248 14.9741 10.6655 14.9741C11.04 14.9741 11.3841 14.9013 11.6865 14.7604H11.6877C11.7765 14.7217 11.8631 14.7228 11.9823 14.8104C12.8369 15.4505 13.2608 15.6858 13.5644 15.6858C13.7106 15.6858 13.6847 15.231 13.6847 15.231C13.6847 15.231 13.6634 15.1162 13.5397 15.0264ZM9.06425 12.1875C9.06425 12.184 9.06425 12.1806 9.06425 12.1761C9.06649 11.1528 9.43532 10.0671 10.6678 10.0671C12.0644 10.0671 12.278 11.1528 12.2791 12.1761C12.2791 12.1795 12.2791 12.1829 12.2791 12.1875C12.2791 13.4051 11.8889 14.3306 10.6678 14.3306C9.26553 14.3306 9.06425 13.2141 9.06425 12.1875Z" fill="#76A62D"/>
<path d="M60 3C60 1.34315 61.3431 0 63 0H93C94.6569 0 96 1.34315 96 3V21C96 22.6569 94.6569 24 93 24H63C61.3431 24 60 22.6569 60 21V3Z" fill="white"/>
<path d="M90.9829 7.52637H89.0969C88.5268 7.52637 88.0882 7.70181 87.825 8.27198L84.2285 16.4737H86.7724C86.7724 16.4737 87.211 15.3772 87.2987 15.1141C87.5618 15.1141 90.0618 15.1141 90.4127 15.1141C90.5004 15.4211 90.7197 16.4299 90.7197 16.4299H93.0004L90.9829 7.52637ZM88.0004 13.272C88.2197 12.7457 88.9654 10.772 88.9654 10.772C88.9654 10.8158 89.1847 10.2457 89.2724 9.93865L89.4478 10.7281C89.4478 10.7281 89.9303 12.8772 90.018 13.3158H88.0004V13.272Z" fill="#3362AB"/>
<path d="M84.4034 13.5349C84.4034 15.377 82.7367 16.6051 80.149 16.6051C79.0525 16.6051 77.9999 16.3858 77.4297 16.1226L77.7806 14.1051L78.0876 14.2366C78.8771 14.5875 79.4034 14.7191 80.3683 14.7191C81.07 14.7191 81.8157 14.4559 81.8157 13.8419C81.8157 13.4472 81.5086 13.184 80.5437 12.7454C79.6227 12.3068 78.3946 11.6051 78.3946 10.3331C78.3946 8.57874 80.1051 7.39453 82.5174 7.39453C83.4385 7.39453 84.2279 7.56997 84.7104 7.78927L84.3595 9.71909L84.1841 9.54365C83.7455 9.36822 83.1753 9.19278 82.342 9.19278C81.4209 9.23664 80.9823 9.63137 80.9823 9.98225C80.9823 10.377 81.5086 10.684 82.342 11.0787C83.7455 11.7366 84.4034 12.4823 84.4034 13.5349Z" fill="#3362AB"/>
<path d="M63 7.61392L63.0439 7.43848H66.8158C67.3421 7.43848 67.7368 7.61392 67.8684 8.18409L68.7018 12.1315C67.8684 10.0262 65.9386 8.31567 63 7.61392Z" fill="#F9B50B"/>
<path d="M74.0086 7.52628L70.1928 16.4298H67.6051L65.4121 8.97365C66.9911 9.98242 68.3068 11.5614 68.7893 12.6579L69.0525 13.5789L71.4209 7.48242H74.0086V7.52628Z" fill="#3362AB"/>
<path d="M75.0175 7.48242H77.4298L75.8947 16.4298H73.4824L75.0175 7.48242Z" fill="#3362AB"/>
<path d="M120 3C120 1.34315 121.343 0 123 0H153C154.657 0 156 1.34315 156 3V21C156 22.6569 154.657 24 153 24H123C121.343 24 120 22.6569 120 21V3Z" fill="white"/>
<path d="M141.757 4.89524L134.01 4.92188L134.245 19.1042L141.991 19.0776L141.757 4.89524Z" fill="#FF5F00"/>
<path d="M134.52 12.0421C134.472 9.15755 135.764 6.59448 137.788 4.93195C136.261 3.73312 134.345 3.01222 132.269 3.01933C127.351 3.03618 123.438 7.08822 123.521 12.0798C123.604 17.0714 127.651 21.0962 132.569 21.0793C134.646 21.0722 136.537 20.3383 138.024 19.1291C135.946 17.5057 134.568 14.9267 134.52 12.0421Z" fill="#EB001B"/>
<path d="M152.481 11.9202C152.564 16.9118 148.651 20.9638 143.733 20.9806C141.656 20.9878 139.741 20.2669 138.213 19.068C140.262 17.4054 141.53 14.8424 141.482 11.9578C141.434 9.07327 140.056 6.51934 137.977 4.87087C139.465 3.66171 141.356 2.92777 143.432 2.92066C148.351 2.90381 152.398 6.95368 152.481 11.9202Z" fill="#F79E1B"/>
</svg>
