<svg width="68" height="68" viewBox="0 0 68 68" fill="none" xmlns="http://www.w3.org/2000/svg">
<rect width="68" height="68" rx="2" fill="#F7F7F7"/>
<path d="M39.625 22.75C37.45 22.75 35.3625 23.7625 34 25.3625C32.6375 23.7625 30.55 22.75 28.375 22.75C24.525 22.75 21.5 25.775 21.5 29.625C21.5 34.35 25.75 38.2 32.1875 44.05L34 45.6875L35.8125 44.0375C42.25 38.2 46.5 34.35 46.5 29.625C46.5 25.775 43.475 22.75 39.625 22.75ZM34.125 42.1875L34 42.3125L33.875 42.1875C27.925 36.8 24 33.2375 24 29.625C24 27.125 25.875 25.25 28.375 25.25C30.3 25.25 32.175 26.4875 32.8375 28.2H35.175C35.825 26.4875 37.7 25.25 39.625 25.25C42.125 25.25 44 27.125 44 29.625C44 33.2375 40.075 36.8 34.125 42.1875Z" fill="#303437"/>
</svg>
