<svg width="68" height="68" viewBox="0 0 68 68" fill="none" xmlns="http://www.w3.org/2000/svg">
<rect width="68" height="68" rx="2" fill="#F7F7F7"/>
<path d="M35.25 47.75H32.75V20.25H35.25V47.75ZM30.25 42.75H25.25V25.25H30.25V22.75H25.25C23.8625 22.75 22.75 23.8625 22.75 25.25V42.75C22.75 44.1375 23.875 45.25 25.25 45.25H30.25V42.75ZM42.75 27.75V30.25H45.25V27.75H42.75ZM42.75 25.25H45.25C45.25 23.8625 44.125 22.75 42.75 22.75V25.25ZM45.25 37.75H42.75V40.25H45.25V37.75ZM42.75 32.75V35.25H45.25V32.75H42.75ZM40.25 22.75H37.75V25.25H40.25V22.75ZM42.75 45.25C44.1375 45.25 45.25 44.1375 45.25 42.75H42.75V45.25ZM40.25 42.75H37.75V45.25H40.25V42.75Z" fill="#303437"/>
</svg>
