<svg width="31" height="30" viewBox="0 0 31 30" fill="none" xmlns="http://www.w3.org/2000/svg">
<path d="M24.25 11.25V8.75C24.25 6.6875 22.5625 5 20.5 5H10.5C8.4375 5 6.75 6.6875 6.75 8.75V11.25C4.6875 11.25 3 12.9375 3 15V21.25C3 23.3125 4.6875 25 6.75 25V27.5H9.25V25H21.75V27.5H24.25V25C26.3125 25 28 23.3125 28 21.25V15C28 12.9375 26.3125 11.25 24.25 11.25ZM9.25 8.75C9.25 8.0625 9.8125 7.5 10.5 7.5H20.5C21.1875 7.5 21.75 8.0625 21.75 8.75V12.225C20.9875 12.9125 20.5 13.9 20.5 15V17.5H10.5V15C10.5 13.9 10.0125 12.9125 9.25 12.225V8.75ZM25.5 21.25C25.5 21.9375 24.9375 22.5 24.25 22.5H6.75C6.0625 22.5 5.5 21.9375 5.5 21.25V15C5.5 14.3125 6.0625 13.75 6.75 13.75C7.4375 13.75 8 14.3125 8 15V20H23V15C23 14.3125 23.5625 13.75 24.25 13.75C24.9375 13.75 25.5 14.3125 25.5 15V21.25Z" fill="#2362CB"/>
</svg>
