<svg width="24" height="25" viewBox="0 0 24 25" fill="none" xmlns="http://www.w3.org/2000/svg">
<path d="M19 9.44592V7.44592C19 5.79592 17.65 4.44592 16 4.44592H8C6.35 4.44592 5 5.79592 5 7.44592V9.44592C3.35 9.44592 2 10.7959 2 12.4459V17.4459C2 19.0959 3.35 20.4459 5 20.4459V22.4459H7V20.4459H17V22.4459H19V20.4459C20.65 20.4459 22 19.0959 22 17.4459V12.4459C22 10.7959 20.65 9.44592 19 9.44592ZM7 7.44592C7 6.89592 7.45 6.44592 8 6.44592H16C16.55 6.44592 17 6.89592 17 7.44592V10.2259C16.39 10.7759 16 11.5659 16 12.4459V14.4459H8V12.4459C8 11.5659 7.61 10.7759 7 10.2259V7.44592ZM20 17.4459C20 17.9959 19.55 18.4459 19 18.4459H5C4.45 18.4459 4 17.9959 4 17.4459V12.4459C4 11.8959 4.45 11.4459 5 11.4459C5.55 11.4459 6 11.8959 6 12.4459V16.4459H18V12.4459C18 11.8959 18.45 11.4459 19 11.4459C19.55 11.4459 20 11.8959 20 12.4459V17.4459Z" fill="#303437"/>
</svg>
