<svg width="30" height="30" viewBox="0 0 30 30" fill="none" xmlns="http://www.w3.org/2000/svg">
<path d="M9.375 2.5C10.038 2.5 10.6739 2.76339 11.1428 3.23223C11.6116 3.70107 11.875 4.33696 11.875 5C11.875 5.66304 11.6116 6.29893 11.1428 6.76777C10.6739 7.23661 10.038 7.5 9.375 7.5C8.71196 7.5 8.07607 7.23661 7.60723 6.76777C7.13839 6.29893 6.875 5.66304 6.875 5C6.875 4.33696 7.13839 3.70107 7.60723 3.23223C8.07607 2.76339 8.71196 2.5 9.375 2.5V2.5ZM7.5 8.75H11.25C11.913 8.75 12.5489 9.01339 13.0178 9.48223C13.4866 9.95107 13.75 10.587 13.75 11.25V18.125H11.875V27.5H6.875V18.125H5V11.25C5 10.587 5.26339 9.95107 5.73223 9.48223C6.20107 9.01339 6.83696 8.75 7.5 8.75V8.75ZM20.625 2.5C21.288 2.5 21.9239 2.76339 22.3928 3.23223C22.8616 3.70107 23.125 4.33696 23.125 5C23.125 5.66304 22.8616 6.29893 22.3928 6.76777C21.9239 7.23661 21.288 7.5 20.625 7.5C19.962 7.5 19.3261 7.23661 18.8572 6.76777C18.3884 6.29893 18.125 5.66304 18.125 5C18.125 4.33696 18.3884 3.70107 18.8572 3.23223C19.3261 2.76339 19.962 2.5 20.625 2.5ZM18.75 27.5V20H15L18.2375 10.5125C18.55 9.4875 19.5 8.75 20.625 8.75C21.75 8.75 22.7 9.4875 23.0125 10.5125L26.25 20H22.5V27.5H18.75Z" fill="#2362CB"/>
</svg>
